Coordinates
version=1
nRows=17
nColumns=24
inDegrees=yes

Units are S.I. units (second, meters, Newtons, ...)
Angles are in degrees.

endheader
time	pelvis_tilt	pelvis_list	pelvis_rotation	pelvis_tx	pelvis_ty	pelvis_tz	hip_flexion_r	hip_adduction_r	hip_rotation_r	knee_angle_r	ankle_angle_r	subtalar_angle_r	mtp_angle_r	hip_flexion_l	hip_adduction_l	hip_rotation_l	knee_angle_l	ankle_angle_l	subtalar_angle_l	mtp_angle_l	lumbar_extension	lumbar_bending	lumbar_rotation
      1.00000000	      5.49354016	     -0.76228974	      0.70526900	      0.59350486	      1.04477537	      0.04770016	     -3.67589427	      2.56345605	     -6.84422181	    -11.14297161	      8.46612470	      5.17279775	      0.00000000	     17.89170148	     -7.11739488	     -8.83970168	    -58.12137949	      3.52155099	     14.94923247	      0.00000000	    -19.60539559	      1.86251567	      1.37381815
      1.01666667	      5.53955070	     -0.72177521	      0.42835189	      0.59158784	      1.04475483	      0.04868244	     -5.14186682	      2.62389338	     -6.60427185	    -10.38497365	      8.85022938	      5.17279789	      0.00000000	     18.56362971	     -6.92973501	     -9.63008123	    -53.84286288	      3.72894682	     14.94923195	      0.00000000	    -19.75504444	      1.65813901	      1.72101812
      1.03333333	      5.54488899	     -0.84048518	      0.23549774	      0.58961472	      1.04428452	      0.04972536	     -6.64143530	      2.86675649	     -6.47008570	     -9.47688646	      9.16347365	      5.17279784	      0.00000000	     19.05748221	     -7.01549760	    -10.73786087	    -49.03827928	      3.61976505	     14.94923149	      0.00000000	    -19.88414345	      1.65265694	      2.03672347
      1.05000000	      5.68074391	     -1.08821505	      0.09600068	      0.58766218	      1.04368428	      0.05027215	     -8.25158429	      3.20684348	     -6.36029965	     -8.64444333	      9.46236303	      5.17279785	      0.00000000	     19.15730774	     -7.20668598	    -12.13882092	    -43.70931404	      3.19709029	     14.94923092	      0.00000000	    -20.20372577	      1.79726800	      2.17183620
      1.06666667	      5.54856134	     -1.58043310	     -0.21119917	      0.58555293	      1.04206828	      0.05095965	     -9.48917830	      3.75408265	     -6.01409481	     -7.96846567	      9.80392746	      5.17279799	      0.00000000	     19.37641827	     -7.62526237	    -13.81540987	    -38.12065240	      2.56806293	     14.94923079	      0.00000000	    -20.05579007	      2.20689162	      2.66269580
      1.08333333	      5.42186626	     -1.86986364	     -0.47132534	      0.58380881	      1.04020112	      0.05103097	    -10.77863673	      4.03102173	     -5.58280602	     -7.28400154	     10.19883280	      5.17279804	      0.00000000	     19.31651451	     -7.59888870	    -15.53046997	    -32.08984603	      1.67172357	     14.94923097	      0.00000000	    -20.08154047	      2.31075781	      2.83428379
      1.10000000	      5.24732307	     -2.35577774	     -0.74532011	      0.58247408	      1.03779328	      0.05133762	    -12.11910775	      4.51248959	     -5.10276162	     -6.47602282	     10.50277252	      5.17279828	      0.00000000	     19.33322148	     -7.62577018	    -16.86116407	    -26.26189151	      0.85934953	     14.94923219	      0.00000000	    -19.92015553	      2.69120320	      3.22459630
      1.11666667	      5.01596182	     -2.77020538	     -0.99900367	      0.58112836	      1.03498536	      0.05136862	    -13.26716885	      4.88640695	     -4.51786604	     -5.98195732	     10.97981973	      5.17279833	      0.00000000	     19.32516564	     -7.35312687	    -17.51742961	    -20.41302716	      0.15493655	     14.94923367	      0.00000000	    -19.77999908	      3.00977422	      3.31213854
      1.13333333	      4.83718096	     -3.28697056	     -1.48274321	      0.57949287	      1.03187775	      0.05116464	    -14.33751997	      5.25099130	     -3.67026261	     -5.75651864	     11.54947644	      5.17279841	      0.00000000	     19.30635042	     -7.17412783	    -17.52177474	    -15.02626165	     -0.20655101	     14.94923547	      0.00000000	    -19.72802537	      3.29596189	      3.79616106
      1.15000000	      4.85998774	     -3.74332417	     -1.72069402	      0.57861488	      1.02891154	      0.05050056	    -15.68243642	      5.57142433	     -3.04505462	     -5.48256605	     12.07414347	      5.17279855	      0.00000000	     18.93445644	     -6.84088171	    -16.61331694	     -9.89053981	     -0.34352669	     14.94923716	      0.00000000	    -19.80618069	      3.69156451	      4.13467626
      1.16666667	      4.80085738	     -4.06275493	     -2.06132380	      0.57817853	      1.02559039	      0.05019672	    -17.01992717	      5.72464003	     -2.50804407	     -5.11359849	     12.52396756	      5.17279854	      0.00000000	     18.70168951	     -6.57053327	    -15.43349909	     -5.73681105	     -0.10711479	     14.94923857	      0.00000000	    -19.89542503	      3.70682245	      4.08190293
      1.18333333	      4.89581654	     -4.38452801	     -2.60353236	      0.57757914	      1.02267490	      0.04968466	    -18.25728667	      5.73236316	     -1.82076272	     -5.26947617	     13.07474822	      5.17279882	      0.00000000	     18.36078583	     -6.50140987	    -14.42406460	     -2.71166560	      0.33328456	     14.94923965	      0.00000000	    -19.99526507	      3.78298866	      4.71268235
      1.20000000	      4.77854595	     -4.48463518	     -2.86706595	      0.57784477	      1.01962728	      0.04912486	    -19.35936232	      5.61318808	     -1.48687866	     -5.28259248	     13.45182656	      5.17279896	      0.00000000	     18.35556797	     -6.28304697	    -13.41914772	     -0.91127429	      0.73670075	     14.94924028	      0.00000000	    -19.88409583	      3.56617541	      4.40608230
      1.21666667	      4.88677436	     -4.59270488	     -3.11534393	      0.57739069	      1.01736947	      0.04832212	    -20.26287556	      5.45018029	     -1.11556653	     -6.07652251	     13.95743376	      5.17279923	      0.00000000	     18.46925497	     -6.22258452	    -12.60740825	     -0.82391816	      1.09098817	     14.94924046	      0.00000000	    -20.08876039	      3.32428597	      4.49683593
      1.23333333	      4.97968756	     -4.50953010	     -3.45632472	      0.57771452	      1.01552831	      0.04731839	    -21.03560291	      5.02975365	     -0.65964165	     -7.11021933	     14.40073226	      5.17279955	      0.00000000	     18.57994923	     -6.06017677	    -12.13043888	     -1.77647371	      1.07072188	     14.94924030	      0.00000000	    -20.13585579	      2.83897604	      4.39518653
      1.25000000	      4.91485362	     -4.34679782	     -4.06289696	      0.57918948	      1.01409399	      0.04573946	    -21.50259741	      4.37855597	      0.00349890	     -8.50757674	     14.70653071	      5.17279985	      0.00000000	     18.81340790	     -5.92670580	    -12.04506548	     -3.61566160	      0.66953872	     14.94924001	      0.00000000	    -19.89918834	      2.34863067	      4.63303406
      1.26666667	      4.77748875	     -4.09792827	     -4.11658386	      0.58133632	      1.01275568	      0.04393975	    -21.69076032	      3.87573573	      0.14336020	    -10.32684730	     14.93500022	      5.17280027	      0.00000000	     19.31247394	     -5.63481119	    -11.56833478	     -6.13403239	     -0.14061615	     14.94923946	      0.00000000	    -19.44176727	      1.81166800	      4.43419600
